<?xml version="1.0" encoding="UTF-8" standalone="no"?>
<svg width="44.7146mm" height="42.5979mm"
 xmlns="http://www.w3.org/2000/svg" xmlns:xlink="http://www.w3.org/1999/xlink"  version="1.2" baseProfile="tiny">
<desc>Created by EvoPdf</desc>
<defs>
</defs>
<g fill="none" stroke="black" stroke-width="1" fill-rule="evenodd" stroke-linecap="square" stroke-linejoin="bevel" >

<g fill="#000000" fill-opacity="1" stroke="#000000" stroke-opacity="1" stroke-width="1" stroke-linecap="butt" stroke-linejoin="miter" stroke-miterlimit="2" transform="matrix(1,0,0,1,0,0)"
>
</g>

<g fill="#000000" fill-opacity="1" stroke="#000000" stroke-opacity="1" stroke-width="1" stroke-linecap="butt" stroke-linejoin="miter" stroke-miterlimit="2" transform="matrix(1,0,0,1,0,0)"
>
</g>

<g fill="#000000" fill-opacity="1" stroke="#000000" stroke-opacity="1" stroke-width="1" stroke-linecap="butt" stroke-linejoin="miter" stroke-miterlimit="2" transform="matrix(1,0,0,1,0,0)"
>
</g>

<g fill="#000000" fill-opacity="1" stroke="#000000" stroke-opacity="1" stroke-width="1" stroke-linecap="butt" stroke-linejoin="miter" stroke-miterlimit="2" transform="matrix(1,0,0,1,0,0)"
>
</g>

<g fill="#000000" fill-opacity="1" stroke="#000000" stroke-opacity="1" stroke-width="1" stroke-linecap="butt" stroke-linejoin="miter" stroke-miterlimit="2" transform="matrix(1,0,0,1,8,8)"
>
</g>

<g fill="#000000" fill-opacity="1" stroke="#000000" stroke-opacity="1" stroke-width="1" stroke-linecap="butt" stroke-linejoin="miter" stroke-miterlimit="2" transform="matrix(1,0,0,1,8,8)"
>
</g>

<g fill="#ffffff" fill-opacity="1" stroke="none" transform="matrix(1,0,0,1,8,8)"
>
<path vector-effect="none" fill-rule="nonzero" d="M1,80.5 C1,36.7 36.7,1 80.5,1 C101.5,1 120.6,9.2 134.9,22.6 L135.6,21.9 C121.2,8.3 101.8,0 80.5,0 C36.1,0 0,36.1 0,80.5 C0,101.8 8.3,121.2 21.9,135.6 L22.6,134.9 C9.2,120.6 1,101.5 1,80.5 M139.1,25.4 L138.4,26.1 C151.8,40.4 160,59.5 160,80.5 C160,124.3 124.3,160 80.5,160 C59.5,160 40.4,151.8 26.1,138.4 L25.4,139.1 C39.8,152.7 59.2,161 80.5,161 C124.9,161 161,124.9 161,80.5 C161,59.2 152.7,39.8 139.1,25.4 L139.1,25.4"/>
</g>

<g fill="#000000" fill-opacity="1" stroke="#000000" stroke-opacity="1" stroke-width="1" stroke-linecap="butt" stroke-linejoin="miter" stroke-miterlimit="2" transform="matrix(1,0,0,1,8,8)"
>
</g>

<g fill="#ffffff" fill-opacity="1" stroke="none" transform="matrix(1,0,0,1,8,8)"
>
<path vector-effect="none" fill-rule="nonzero" d="M134.9,22.6 L22.6,134.9 C23.7,136.1 24.9,137.3 26.1,138.4 L138.4,26.1 C137.3,24.9 136.1,23.7 134.9,22.6 "/>
</g>

<g fill="#000000" fill-opacity="1" stroke="#000000" stroke-opacity="1" stroke-width="1" stroke-linecap="butt" stroke-linejoin="miter" stroke-miterlimit="2" transform="matrix(1,0,0,1,8,8)"
>
</g>

<g fill="#ffffff" fill-opacity="1" stroke="none" transform="matrix(1,0,0,1,8,8)"
>
<path vector-effect="none" fill-rule="nonzero" d="M22.6,134.9 L21.9,135.6 C23,136.8 24.2,138 25.4,139.1 L26.1,138.4 C24.9,137.3 23.7,136.1 22.6,134.9 M138.4,26.1 L139.1,25.4 C138,24.2 136.8,23 135.6,21.9 L134.9,22.6 C136.1,23.7 137.3,24.9 138.4,26.1 "/>
</g>

<g fill="#000000" fill-opacity="1" stroke="#000000" stroke-opacity="1" stroke-width="1" stroke-linecap="butt" stroke-linejoin="miter" stroke-miterlimit="2" transform="matrix(1,0,0,1,8,8)"
>
</g>

<g fill="#ebd165" fill-opacity="1" stroke="none" transform="matrix(1,0,0,1,8,8)"
>
<path vector-effect="none" fill-rule="nonzero" d="M65.4,108.9 C68.6,107.9 72,107.6 75.2,106.6 C76.5,106.2 76.4,106 76,105 C75,102.5 73.3,100.4 72.3,97.9 L60.4,109.8 C62.1,109.8 63.7,109.5 65.4,108.9 L65.4,108.9 M100.1,40.7 C100.1,38 100.1,38.1 97.4,38 C96.4,38 96,38.2 96,39.3 L96,55.8 L100.1,51.7 L100.1,40.7 M100.1,70.1 L96,74.2 L96,122.4 C96,123.5 96.3,123.9 97.4,123.8 C97.8,123.7 98.1,123.7 98.5,123.8 C99.8,124 100.2,123.5 100.1,122.2 C100,108.4 100.1,94.5 100.1,80.7 L100.1,70.1 M106.1,144.4 C105.6,144.4 104.9,144.8 104.7,143.7 C104.3,141.1 104.2,138.5 103.6,135.9 C102.8,132.8 102.8,129.6 102.6,126.4 C102.5,125.3 102,125 101.1,125 L95.2,125 C94.2,125 93.8,125.5 93.9,126.3 C94.1,128 93.2,129.4 93.1,131 C92.9,134.6 92.1,138.2 91.7,141.8 C91.4,144.1 91.4,144.2 89.3,144.4 C88,144.5 88.7,145.5 88.6,146 C88.5,146.6 88.5,147.2 89.5,147.2 C92.4,147.1 95.2,147.2 98.1,147.2 C100.8,147.2 103.5,147.1 106.2,147.2 C107.3,147.2 107.7,147 107.7,145.8 C107.6,144.7 107.3,144.3 106.1,144.4 L106.1,144.4 M73.7,109.4 C72.8,108 71.7,108.4 70.5,108.5 C69.8,108.5 69.6,109.2 68.9,109.2 C67.4,109.3 65.8,109.8 64.3,110 C63.4,110.2 63.2,110.4 63.8,111.2 C65.1,112.9 66.3,114.8 67.7,116.4 C68.2,117 68.2,117.5 67.9,117.9 C66.8,120 65.9,122.1 64.9,124.2 C63.7,126.8 62.5,129.4 60.9,132 L60.9,130.3 L60.9,112.3 C60.9,111.8 61.3,111.2 60.3,111 C60,110.9 59.7,110.9 59.5,110.8 L51.7,118.6 L51.7,140.7 C51.7,141.7 51.7,142.7 52,143.7 C52.5,145.6 54.1,147.2 55.9,147.2 C58.2,147.3 60,146.1 60.7,144.1 C61.4,142.2 60.8,140.2 61.1,138 C61.5,138.2 61.8,138.3 62,138.4 C64,140.2 67.4,139.7 68.6,137.4 C70,134.7 71.3,132 72.6,129.2 C74.1,126.1 75.6,123.1 77,119.9 C77.7,118.3 78.6,116.6 77.7,114.8 C76.5,113 75,111.3 73.7,109.4 L73.7,109.4 M45.9,89.7 C46.6,90.5 47.4,91.3 48.8,91.2 C50.2,91.1 50.6,90 51.1,89.2 C51.5,88.7 51.3,87.8 50.7,87 C49.2,85.3 47.9,83.4 46.1,81.9 C45.6,81.5 44.6,80.5 45.5,79.7 C46,79.1 46.7,78.6 47.3,78 C47.8,77.6 48.5,77.1 48.9,78.2 C50.2,81.7 53.2,82.9 56.5,81.3 C56.8,81.2 57.1,81.2 57.2,81.4 C57.4,81.7 57,81.8 56.8,81.9 C55.4,82.7 53.9,83.1 52.1,82.5 C52.3,83.4 51.8,84.3 52.4,85 C53.1,86 53,87.1 52.7,88 C51.9,90 51.3,92.2 50.1,94.1 C48.8,96.2 47.9,98.5 46.6,100.6 C45.5,102.5 44.5,104.4 43.7,106.6 C44.2,106.6 44.7,106.6 45.1,106.7 L67.5,84.3 C67.6,84.2 67.6,84.1 67.7,84 C68,83.6 67.9,83.1 67.7,82.8 C67.5,82.4 67.1,82.7 66.7,82.8 C65.3,83.2 64,82.5 62.7,82.1 C62.5,82 62.2,81.7 62.4,81.5 C62.5,81.2 62.9,81.2 63.1,81.4 C65,83 66.7,82.2 68.5,81.1 C71.3,79.3 71.6,76.4 70.3,74 C69.8,73.1 70.1,72.9 70.9,73 C72.7,73.3 74.3,72.2 76.1,72.2 C76.9,72.2 77.9,72.1 78.7,71.9 L80.5,71.3 L95.8,56 C95.9,55.6 95.9,55.2 95.8,54.7 C95.5,53 93.8,52 92.2,52.5 C90.5,53.1 90.4,54.8 89.8,56.1 C89.1,57.8 88.2,59.2 87.1,60.6 C84.4,63.9 80.7,65.7 76.7,66.6 C72.8,67.5 68.8,67.5 64.7,67.1 C59.5,66.6 54.2,66 49.5,69.5 C48.4,70.3 47.1,71.2 45.9,72 C43.4,73.7 41.3,75.9 39,77.8 C38,78.6 37.6,80.9 38.5,81.7 C41.3,84.2 43.4,87.1 45.9,89.7 L45.9,89.7 M90.6,20.4 C90.7,20.4 90.7,20.9 90.8,21.1 C91.3,22.5 91.7,24 92.1,25.4 C92.7,27.9 93.6,30.3 94.2,32.9 C94.4,33.7 94.5,34 93.5,34.1 C92.2,34.2 93,35.3 92.9,35.9 C92.7,36.5 93,36.9 93.7,36.9 L102.5,36.9 C103,36.9 103.3,36.7 103.2,36.2 C103.2,35.1 103.6,33.7 101.4,34.1 C102,33.4 101.8,32.7 102,32.2 C103.2,29.7 103.6,27 104.4,24.4 C104.8,23.1 105.7,21.9 105.8,20.5 C107.8,20.2 106.5,18.7 107,17.7 C105.1,18 104.5,17.8 104.3,16.1 C104.1,14.9 103.2,14 103.2,12.7 C103.2,12.3 102.9,12.2 102.6,12.2 C101,11.9 99.1,10 98.8,8.5 C98.7,7.9 98.8,7.2 98,7.3 C97.4,7.4 97.2,8 97.2,8.6 C97.3,10.3 95.2,10.6 95.1,12.2 C95.1,12.2 94.7,12.3 94.5,12.3 C93.1,12 92.7,12.9 92.5,14 C92.4,14.6 92.3,15.2 92.1,15.8 C91.4,18 91.2,18.1 89.3,17.8 C89.7,18.5 88.6,20 90.6,20.4 L90.6,20.4 M100.4,25.5 C100.5,24 101.3,22.5 101.1,20.9 C101.1,20.4 101.5,20 102.2,20.1 C103,20.2 103.8,20.1 104.7,20.1 C103.6,23.8 102.5,27.2 101.5,30.7 C101.3,31.4 101.1,32.2 101,32.9 C100.8,33.8 100.2,33.8 99.5,33.8 C99.1,33.8 99,33.4 99.1,33.3 C100.4,32.3 99.5,30.9 99.9,29.7 C100.4,28.5 100.3,27 100.4,25.5 L100.4,25.5 M98,20.2 C100.4,20.2 100.1,20.2 99.9,22.5 C99.7,25.3 98.6,28 98.8,30.9 C98.8,31.7 98.6,32.5 98.5,33.3 C98.5,33.7 98.4,33.9 98,33.9 C97.6,33.9 97.6,33.6 97.6,33.3 C97.4,31.2 97.2,29 97,26.9 C96.8,25.1 97,23.3 96.1,21.6 C95.5,20.5 96,20.2 98,20.2 L98,20.2 M93.4,20.2 C95.4,20.2 95.3,20.2 95.4,22.3 C95.5,24.7 95.8,27 96.2,29.3 C96.4,30.5 96.4,31.8 96.8,32.9 C96.9,33.3 97.2,33.7 96.6,33.9 C96.1,34.1 95.5,33.9 95.4,33.3 C95.3,32.2 94.7,31.2 94.5,30.2 C93.9,27.6 92.7,25.2 92.3,22.6 L92.3,22.1 C91.4,20.2 91.4,20.2 93.4,20.2 L93.4,20.2"/>
</g>

<g fill="#000000" fill-opacity="1" stroke="#000000" stroke-opacity="1" stroke-width="1" stroke-linecap="butt" stroke-linejoin="miter" stroke-miterlimit="2" transform="matrix(1,0,0,1,8,8)"
>
</g>

<g fill="#ebd165" fill-opacity="1" stroke="none" transform="matrix(1,0,0,1,8,8)"
>
<path vector-effect="none" fill-rule="nonzero" d="M55.7,63.8 C55.8,64 56.5,64 56.9,64.2 C57.8,64.7 58.9,64.3 59.8,65.1 C60.5,65.7 61.1,64.4 62,64.5 C63.8,64.6 65.3,63.7 66.5,62.5 C68.5,60.6 69.7,58.2 69.5,55.1 C70,53.8 69,52.5 68.5,51.2 C67.5,48.6 65.3,47.1 62.9,46.3 C60.1,45.4 57.3,45.7 54.8,47.5 C52.2,49.3 50.9,51.8 50.6,54.7 C50.3,57.2 51.2,59.5 53,61.5 C53.9,62.5 55.2,62.7 55.7,63.8 L55.7,63.8"/>
</g>

<g fill="#000000" fill-opacity="1" stroke="#000000" stroke-opacity="1" stroke-width="1" stroke-linecap="butt" stroke-linejoin="miter" stroke-miterlimit="2" transform="matrix(1,0,0,1,8,8)"
>
</g>

<g fill="#000000" fill-opacity="1" stroke="#000000" stroke-opacity="1" stroke-width="1" stroke-linecap="butt" stroke-linejoin="miter" stroke-miterlimit="2" transform="matrix(1,0,0,1,8,8)"
>
</g>

<g fill="#000000" fill-opacity="1" stroke="#000000" stroke-opacity="1" stroke-width="1" stroke-linecap="butt" stroke-linejoin="miter" stroke-miterlimit="2" transform="matrix(1,0,0,1,8,8)"
>
</g>

<g fill="#000000" fill-opacity="1" stroke="#000000" stroke-opacity="1" stroke-width="1" stroke-linecap="butt" stroke-linejoin="miter" stroke-miterlimit="2" transform="matrix(1,0,0,1,0,0)"
>
</g>

<g fill="#000000" fill-opacity="1" stroke="#000000" stroke-opacity="1" stroke-width="1" stroke-linecap="butt" stroke-linejoin="miter" stroke-miterlimit="2" transform="matrix(1,0,0,1,0,0)"
>
</g>

<g fill="#000000" fill-opacity="1" stroke="#000000" stroke-opacity="1" stroke-width="1" stroke-linecap="butt" stroke-linejoin="miter" stroke-miterlimit="2" transform="matrix(1,0,0,1,0,0)"
>
</g>

<g fill="#000000" fill-opacity="1" stroke="#000000" stroke-opacity="1" stroke-width="1" stroke-linecap="butt" stroke-linejoin="miter" stroke-miterlimit="2" transform="matrix(1,0,0,1,0,0)"
>
</g>

<g fill="#000000" fill-opacity="1" stroke="#000000" stroke-opacity="1" stroke-width="1" stroke-linecap="butt" stroke-linejoin="miter" stroke-miterlimit="2" transform="matrix(1,0,0,1,0,0)"
>
</g>

<g fill="#000000" fill-opacity="1" stroke="#000000" stroke-opacity="1" stroke-width="1" stroke-linecap="butt" stroke-linejoin="miter" stroke-miterlimit="2" transform="matrix(1,0,0,1,0,0)"
>
</g>
</g>
</svg>
