<?xml version="1.0" encoding="UTF-8" standalone="no"?>
<svg width="77px" height="77px" viewBox="0 0 77 77" version="1.1" xmlns="http://www.w3.org/2000/svg" xmlns:xlink="http://www.w3.org/1999/xlink">
    <!-- Generator: Sketch 3.6.1 (26313) - http://www.bohemiancoding.com/sketch -->
    <title>secure</title>
    <desc>Created with Sketch.</desc>
    <defs></defs>
    <g id="Desktop" stroke="none" stroke-width="1" fill="none" fill-rule="evenodd">
        <g id="home-copy" transform="translate(-777.000000, -1053.000000)">
            <g id="Group-2" transform="translate(697.000000, 1054.000000)">
                <g id="secure" transform="translate(81.000000, 0.000000)">
                    <g id="Group-8" transform="translate(19.000000, 12.000000)" fill="#EBD165">
                        <path d="M24.3110943,28.7326389 L15.5686226,37.3777778 L11.8518679,33.6805556 C11.1698113,33.0020833 10.1226415,33.0020833 9.44337736,33.6805556 C8.76201887,34.3590278 8.76201887,35.4006944 9.44337736,36.0756944 L13.1608302,39.7729167 L14.417434,40.9180556 C14.7315849,41.2298611 15.2028113,41.4388889 15.6230755,41.4388889 C16.0426415,41.4388889 16.5117736,41.28125 16.8280189,40.9180556 L26.6700189,31.1277778 C27.3520755,30.45 27.3520755,29.4083333 26.6700189,28.7326389 C25.9886604,28.0541667 24.9414906,28.0541667 24.3110943,28.7326389 L24.3110943,28.7326389 Z" id="Fill-1"></path>
                        <path d="M36.5636792,24.5145833 L36.5636792,20.2965278 C36.5636792,20.0875 36.5120189,19.9326389 36.3535472,19.8270833 C36.2502264,19.7236111 36.0400943,19.6180556 35.8816226,19.6180556 L30.3295283,19.6180556 L30.3295283,12.4291667 C30.3295283,5.81597222 24.9359057,0.45 18.2870755,0.45 C11.6389434,0.45 6.24462264,5.81597222 6.24462264,12.4291667 L6.24462264,19.6180556 L0.698113208,19.6180556 C0.487981132,19.6180556 0.333,19.6694444 0.226188679,19.8270833 C0.122867925,19.9840278 0.0160566038,20.1388889 0.0160566038,20.2965278 L0.0160566038,49.2027778 C0.0160566038,49.4111111 0.0684150943,49.5659722 0.226188679,49.6715278 C0.384660377,49.775 0.539641509,49.8805556 0.698113208,49.8805556 L35.8816226,49.8805556 C36.0917547,49.8805556 36.247434,49.8291667 36.3535472,49.6715278 C36.5120189,49.5145833 36.5636792,49.3597222 36.5636792,49.2027778 L36.5636792,24.5145833 Z M7.55637736,12.4291667 C7.55637736,6.54305556 12.3726604,1.75208333 18.2898679,1.75208333 C24.2077736,1.75208333 28.9716981,6.54583333 28.9716981,12.4291667 L28.9716981,19.6180556 L27.0874906,19.6180556 L27.0874906,12.4291667 C27.0874906,7.58472222 23.1089434,3.62708333 18.2382075,3.62708333 C13.3674717,3.62708333 9.38892453,7.58472222 9.38892453,12.4291667 L9.38892453,19.6180556 L7.50471698,19.6180556 L7.50471698,12.4291667 L7.55637736,12.4291667 Z M10.7495472,19.6180556 L10.7495472,12.4291667 C10.7495472,8.31458333 14.1528491,4.92916667 18.2898679,4.92916667 C22.4268868,4.92916667 25.8301887,8.31458333 25.8301887,12.4291667 L25.8301887,19.6180556 L10.7495472,19.6180556 Z M35.1513962,21.0229167 L35.1513962,48.5756944 L1.38016981,48.5756944 L1.38016981,21.0229167 L35.1513962,21.0229167 Z" id="Fill-2"></path>
                    </g>
                    <circle id="Oval-3-Copy-2" stroke="#FFFFFF" cx="37.5" cy="37.5" r="37.5"></circle>
                </g>
            </g>
        </g>
    </g>
</svg>