<?xml version="1.0" encoding="UTF-8" standalone="no"?>
<svg width="77px" height="77px" viewBox="0 0 77 77" version="1.1" xmlns="http://www.w3.org/2000/svg" xmlns:xlink="http://www.w3.org/1999/xlink">
    <!-- Generator: Sketch 3.6.1 (26313) - http://www.bohemiancoding.com/sketch -->
    <title>promise-results</title>
    <desc>Created with Sketch.</desc>
    <defs></defs>
    <g id="Desktop" stroke="none" stroke-width="1" fill="none" fill-rule="evenodd">
        <g id="home-copy" transform="translate(-474.000000, -1055.000000)">
            <g id="Group-11" transform="translate(400.000000, 1056.000000)">
                <g id="promise-results" transform="translate(75.000000, 0.000000)">
                    <g id="Group-9" transform="translate(18.000000, 12.000000)" fill="#EBD165">
                        <path d="M38.4268983,19.6111558 C38.4268983,19.223026 38.2794915,18.8560909 38.0084746,18.5739351 L34.9929153,15.451013 L36.0459153,11.2312597 C36.1391186,10.8563766 36.0849153,10.4655974 35.8912373,10.1317792 C35.6975593,9.79531169 35.3848983,9.55223377 35.0107627,9.44096104 L30.8404068,8.24809091 L29.6479322,4.06211688 C29.5395254,3.69187013 29.2962712,3.38123377 28.9604746,3.18518182 C28.6326102,2.99575325 28.2326949,2.93945455 27.8585593,3.02953247 L23.6518475,4.0852987 L20.5305254,1.06305195 C19.9752712,0.527883117 19.0220847,0.527883117 18.4694746,1.06305195 L15.3554237,4.09324675 L11.1368136,3.03218182 C10.7904407,2.94409091 10.3647458,2.9984026 10.0395254,3.18716883 C9.70372881,3.38388312 9.46047458,3.69451948 9.3520678,4.06741558 L8.16686441,8.24809091 L3.98394915,9.44625974 C3.61510169,9.55223377 3.30244068,9.79531169 3.10876271,10.1317792 C2.91772881,10.4655974 2.86088136,10.859026 2.95672881,11.2365584 L4.01501695,15.4483636 L0.991525424,18.5792338 C0.723152542,18.8587403 0.575745763,19.2256753 0.575745763,19.6138052 C0.575745763,20.0019351 0.723152542,20.3695325 0.991525424,20.6463896 L4.01237288,23.764013 L2.95937288,27.9917143 C2.86616949,28.3665974 2.92037288,28.760026 3.11405085,29.0938442 C3.30772881,29.4276623 3.62038983,29.6733896 3.98923729,29.782013 L8.15959322,30.9669351 L9.35471186,35.1582078 C9.46311864,35.5311039 9.70637288,35.8410779 10.0415085,36.0377922 C10.3700339,36.2265584 10.7752373,36.2835195 11.1394576,36.1907922 L12.0741356,35.955 L12.0741356,48.7361299 C12.0741356,49.621013 12.792,50.3403117 13.6751186,50.3403117 C14.0955254,50.3403117 14.4908136,50.1773766 14.7902542,49.8846234 L19.5,45.4270909 L24.2018136,49.8746883 C24.5091864,50.1773766 24.9071186,50.3376623 25.3275254,50.3376623 C26.2106441,50.3376623 26.9285085,49.6183636 26.9285085,48.7334805 L26.9285085,35.9576494 L27.8631864,36.1907922 C28.2274068,36.2762338 28.6326102,36.2239091 28.9631186,36.0324935 C29.2962712,35.8410779 29.5415085,35.5258052 29.6499153,35.1502597 L30.8404068,30.9722338 L35.0186949,29.7767143 C35.3848983,29.6707403 35.6975593,29.4276623 35.8938814,29.0911948 C36.0849153,28.760026 36.1391186,28.3639481 36.0459153,27.9864156 L34.9929153,23.7693117 L38.0111186,20.6437403 C38.2768475,20.3668831 38.4268983,19.9992857 38.4268983,19.6111558 L38.4268983,19.6111558 Z M25.1622712,48.3506494 L20.5820847,44.0222727 C19.9567627,43.4606104 19.0220847,43.4791558 18.4390678,44.0017403 L13.8377288,48.3506494 L13.8377288,35.5072597 L15.3428644,35.1270779 L18.4694746,38.1592597 C19.0220847,38.6924416 19.9726271,38.7003896 20.5351525,38.1566104 L23.6518475,35.135026 L25.1622712,35.5125584 L25.1622712,48.3506494 Z M33.2081695,23.2930909 L34.4502203,28.257974 L29.5342373,29.6654416 L28.1295763,34.5892597 L23.1719492,33.3473766 L19.5,36.9100909 L15.8181356,33.3394286 L10.8677797,34.5919091 L9.46047458,29.6548442 L4.54713559,28.2606234 L5.79183051,23.2824935 L2.23357627,19.6164545 L5.79447458,15.9272338 L4.54713559,10.9676494 L9.47105085,9.55488312 L10.8657966,4.63371429 L15.833339,5.8808961 L19.4973559,2.31553247 L23.1693051,5.87824675 L28.1269322,4.63371429 L29.5315932,9.55753247 L34.4475763,10.965 L33.2055254,15.9325325 L36.7611356,19.6138052 L33.2081695,23.2930909 Z" id="Fill-1"></path>
                        <path d="M19.5,11.5312987 C15.053339,11.5312987 11.4336102,15.1536234 11.4336102,19.6111558 C11.4336102,24.0667013 15.053339,27.6916753 19.5,27.6916753 C23.946661,27.6916753 27.5663898,24.0667013 27.5663898,19.6111558 C27.5663898,15.1536234 23.946661,11.5312987 19.5,11.5312987 L19.5,11.5312987 Z M19.5,25.9245584 C16.0243729,25.9245584 13.1998475,23.0910779 13.1998475,19.6111558 C13.1998475,16.1292468 16.0243729,13.2984156 19.5,13.2984156 C22.9756271,13.2984156 25.8001525,16.1292468 25.8001525,19.6111558 C25.8001525,23.0910779 22.9756271,25.9245584 19.5,25.9245584 L19.5,25.9245584 Z" id="Fill-2"></path>
                    </g>
                    <circle id="Oval-3" stroke="#FFFFFF" cx="37.5" cy="37.5" r="37.5"></circle>
                </g>
            </g>
        </g>
    </g>
</svg>