<?xml version="1.0" encoding="UTF-8" standalone="no"?>
<svg width="77px" height="77px" viewBox="0 0 77 77" version="1.1" xmlns="http://www.w3.org/2000/svg" xmlns:xlink="http://www.w3.org/1999/xlink">
    <!-- Generator: Sketch 3.6.1 (26313) - http://www.bohemiancoding.com/sketch -->
    <title>safe</title>
    <desc>Created with Sketch.</desc>
    <defs></defs>
    <g id="Desktop" stroke="none" stroke-width="1" fill="none" fill-rule="evenodd">
        <g id="home-copy" transform="translate(-171.000000, -1054.000000)">
            <g id="Group-7" transform="translate(92.000000, 1055.000000)">
                <g id="safe" transform="translate(80.000000, 0.000000)">
                    <g id="Group-10" transform="translate(18.000000, 12.000000)" fill="#EBD165">
                        <path d="M39.1,16.1956875 C38.5592,15.5390625 35.6184,15.0593437 33.0408,14.7605156 L29.2,3.64490625 C28.8408,2.5085625 27.6408,0.416765625 25.4816,0.71559375 C24.3408,0.896484375 23.2,1.43198437 22.3,1.8519375 C21.7592,2.09179687 21.2816,2.33165625 21.0408,2.33165625 C20.8592,2.33165625 20.6816,2.390625 20.5592,2.390625 L20.5592,2.390625 L20.3784,2.390625 L20.3184,2.390625 C20.3184,2.390625 20.3184,2.390625 20.2592,2.390625 L20.0784,2.390625 L20.0784,2.390625 C19.9592,2.390625 19.7784,2.390625 19.5968,2.33165625 C19.356,2.2726875 18.816,2.03282812 18.3376,1.8519375 C17.4376,1.43517187 16.2968,0.955453125 15.156,0.71559375 C13.056,0.357796875 11.7968,2.44959375 11.4376,3.5859375 L7.6,14.7605156 C5.0816,15.0593437 2.1408,15.5390625 1.5408,16.1956875 C1.0592,16.734375 1.1216,17.1511406 1.1816,17.4499687 C1.3624,18.1663594 2.2,18.4651875 2.8,18.6452812 L3.5184,18.8851406 C4.9592,19.3027031 6.2784,19.7226562 7.7184,20.1991875 C7.8376,20.2581562 8.1376,20.3792812 8.5,20.4980156 C10.3592,21.2757656 14.6816,23.1277031 17.7408,23.4265312 L18.2216,23.4862969 C19.3624,23.6042344 19.8408,23.6042344 20.2624,23.6042344 L20.5032,23.6042344 C20.984,23.6042344 21.584,23.5452656 22.844,23.4241406 C25.9032,23.1253125 30.2248,21.2725781 32.084,20.4948281 C32.5032,20.3139375 32.744,20.196 32.8656,20.196 C34.3064,19.7162812 35.6248,19.2995156 37.0656,18.8819531 L37.8472,18.6428906 C38.4472,18.462 39.228,18.1631719 39.4656,17.4475781 C39.5184,17.1511406 39.5184,16.6754062 39.1,16.1956875 L39.1,16.1956875 Z M9.7,12.8496094 L30.9408,12.8496094 L31.7216,14.7605156 L20.3216,15.5390625 L8.9216,14.7605156 L9.7,12.8496094 Z M20.3184,2.87034375 L20.3184,2.87034375 L20.3184,2.81057812 C20.3184,2.80739062 20.3184,2.80739062 20.3184,2.87034375 L20.3184,2.87034375 Z M12.5184,3.94373437 C12.5184,3.94373437 13.2376,1.61207812 14.8592,1.8519375 C15.8784,2.03282812 16.9,2.5085625 17.7408,2.86715625 C18.4,3.16598437 18.9408,3.40504687 19.3592,3.4648125 C19.7184,3.5859375 19.9592,3.5859375 20.2,3.5859375 L20.3184,3.5859375 L20.4376,3.5859375 C20.6784,3.5859375 20.9184,3.5859375 21.2184,3.52696875 C21.6376,3.468 22.1784,3.22814062 22.8376,2.9293125 C23.6784,2.57151562 24.6968,2.09179687 25.7184,1.91409375 C27.3376,1.67503125 28.0592,3.94692187 28.1184,4.00589062 L30.7592,11.6574844 L9.8816,11.6574844 L12.5184,3.94373437 Z M37.4816,17.4499687 L36.7,17.6898281 C35.2592,18.1073906 33.9408,18.5273437 32.5,19.003875 C32.3816,19.0628437 32.0816,19.1839687 31.6,19.3616719 C29.8,20.1394219 25.6,21.8702344 22.6592,22.1690625 C21.1592,22.3499531 20.6784,22.3499531 20.2592,22.3499531 L20.2592,22.9476094 L20.2592,22.3499531 C19.8408,22.3499531 19.4184,22.2909844 18.2784,22.2312187 L17.7968,22.17225 C14.916,21.9323906 10.716,20.1394219 8.916,19.3648594 C8.4968,19.1839687 8.1344,19.0660312 8.016,19.0070625 C6.5752,18.5273437 5.256,18.1105781 3.816,17.6930156 L3.0968,17.4531562 C2.4968,17.2730625 2.316,17.0953594 2.316,17.0953594 C2.316,17.0953594 2.316,17.0363906 2.3752,16.9774219 C2.7936,16.6785937 5.6752,16.1399062 8.0752,15.9000469 L20.3184,16.734375 L32.5592,15.8968594 C34.9592,16.1956875 37.7784,16.6754062 38.2,16.9742344 C38.2592,17.0332031 38.3184,17.0921719 38.3184,17.1543281 C38.2592,17.1511406 38.0816,17.3320312 37.4816,17.4499687 L37.4816,17.4499687 Z" id="Fill-1"></path>
                        <path d="M9.3408,23.7253594 L9.2816,24.3230156 C9.2816,24.5039063 8.6816,29.1042656 11.3816,30.5984063 C12.7624,31.3147969 13.9624,31.6757813 15.0408,31.6757813 C15.4,31.6757813 15.7,31.6168125 16,31.6168125 C16.6592,31.4980781 18.8184,30.9601875 19.1816,27.7910156 L20.2,27.7910156 C20.5592,30.9601875 22.7184,31.5578438 23.4408,31.6757813 C23.6816,31.73475 23.9816,31.73475 24.4,31.73475 L24.4,31.73475 C25.4816,31.73475 26.6816,31.3769531 28.0592,30.6581719 C30.7592,29.223 30.2184,24.562875 30.1592,24.3827813 L30.1,23.785125 L21.8816,24.8617031 C21.2816,24.9206719 20.5624,24.9804375 19.7816,24.9804375 C18.7,24.9804375 17.8624,24.9206719 17.8624,24.9206719 L17.8624,24.9206719 L9.3408,23.7253594 Z M19.7816,26.1159844 C20.6216,26.1159844 21.4,26.0570156 22.0624,25.9980469 L29.0816,25.0425938 C29.1408,26.418 28.9624,28.7464688 27.5216,29.5250156 C26.3216,30.1816406 25.3032,30.4804688 24.4032,30.4804688 C24.1032,30.4804688 23.8624,30.4215 23.6216,30.4215 C22.9624,30.3027656 21.5216,29.8238438 21.4032,27.0754219 L21.4032,26.418 L20.744,26.4777656 C20.2032,26.5367344 19.4248,26.5957031 18.8248,26.4777656 L18.1656,26.3590313 L18.1656,27.0754219 C18.0472,29.7051094 16.7248,30.3027656 15.884,30.4215 C15.5816,30.4804688 15.3408,30.4804688 15.0408,30.4804688 C14.1408,30.4804688 13.1816,30.1816406 11.9216,29.5250156 C10.4816,28.7464688 10.3032,26.418 10.3624,25.0425938 L17.6816,25.9980469 C17.7408,26.0570156 18.6408,26.1159844 19.7816,26.1159844 L19.7816,26.1159844 Z" id="Fill-2"></path>
                        <path d="M36.7592,33.9484688 L38.2,32.8710938 C38.7408,32.5132969 38.8592,31.7937188 38.5592,31.2590156 C37.9592,30.2437969 36.7592,28.2707344 36.1592,27.1343906 C35.9184,26.7168281 35.5592,26.4777656 35.0784,26.4777656 C34.7784,26.4777656 34.4784,26.5957031 34.2376,26.7765938 C32.9184,27.9121406 30.9376,29.6461406 28.5376,31.19925 C23.9184,34.3062656 21.3968,35.6227031 20.3184,36.2203594 C19.1184,35.6227031 16.6592,34.2472969 12.1,31.19925 C10.1184,29.886 7.9592,28.030875 6.5184,26.7168281 C6.1,26.3590313 5.5592,26.1789375 5.0184,26.3000625 C4.4784,26.3590313 4,26.7168281 3.7592,27.1965469 C3.3408,27.9742969 2.8,29.1074531 2.3184,30.1848281 C1.6,31.9777969 1.6,32.3355938 1.9592,32.6344219 C2.1408,32.8153125 2.3784,32.9922188 2.6784,33.2320781 C1.1184,34.9660781 -1.0408,42.1379531 0.6968,49.9074844 L0.816,50.3864063 L38.0816,50.3864063 C38.3816,50.3864063 38.6216,50.2063125 38.6816,49.9074844 C40.1816,42.1379531 38.2,35.6816719 36.7624,34.010625 L36.7592,33.9484688 L36.7592,33.9484688 Z M29.2,32.2734375 C31.6592,30.6613594 33.7,28.9273594 35.0816,27.7320469 C35.7408,28.8683906 36.8816,30.8382656 37.4816,31.9156406 L26.4408,39.9250312 L26.3816,39.984 L26.3216,40.0429687 L26.3216,40.0429687 C26.3216,40.1019375 26.2624,40.1019375 26.2624,40.1609062 C26.2624,40.2206719 26.2624,40.2206719 26.2032,40.2796406 L26.2032,40.3975781 L26.2032,40.5163125 C26.2032,40.5752812 26.2032,40.5752812 26.2624,40.63425 C26.2624,40.6932187 26.2624,40.6932187 26.3216,40.7529844 L26.3216,40.7529844 L26.3816,40.8119531 L26.4408,40.8709219 L30.6408,43.8002344 L23.8592,49.1791406 L15.5184,49.1791406 L17.8592,39.4979062 C18.1592,39.0811406 20.2,37.587 20.7408,37.2881719 C21.8816,36.8148281 24.4,35.4426094 29.2,32.2734375 L29.2,32.2734375 Z M4.7184,27.7910156 C4.8376,27.5511562 5.0184,27.4921875 5.1376,27.4921875 C5.3184,27.4921875 5.4968,27.4921875 5.6784,27.6730781 C7.1784,28.9863281 9.3968,30.9004219 11.4376,32.2734375 C15.3376,34.9039219 17.7968,36.2761406 19.1184,36.9957188 C18.1592,37.6523438 16.9,38.6077969 16.7184,39.2054531 L16.3,40.9394531 L6.3408,34.3652344 C4.7216,33.2288906 3.5816,32.391375 2.9216,31.8566719 C3.1592,31.1960625 4,29.1672187 4.7184,27.7910156 L4.7184,27.7910156 Z M3.4592,34.0664062 C3.7,34.1843437 4.3592,34.546125 5.6784,35.3796562 L16,42.1937344 L14.3184,49.1855156 L1.7816,49.1855156 C0.1592,41.3562187 2.5592,35.20275 3.4592,34.0664062 L3.4592,34.0664062 Z M37.6,49.1887031 L25.7816,49.1887031 L32.0184,44.2265625 C32.1376,44.108625 32.2592,43.9277344 32.2592,43.7468437 C32.2592,43.56675 32.1408,43.3890469 32.0184,43.2679219 L27.8784,40.3975781 L35.8,34.6640625 C36.6408,35.5605469 38.9816,41.3562187 37.6,49.1887031 L37.6,49.1887031 Z" id="Fill-3"></path>
                    </g>
                    <circle id="Oval-3-Copy" stroke="#FFFFFF" cx="37.5" cy="37.5" r="37.5"></circle>
                </g>
            </g>
        </g>
    </g>
</svg>